<svg xmlns="http://www.w3.org/2000/svg" version="1.1" xmlns:xlink="http://www.w3.org/1999/xlink" xmlns:svgjs="http://svgjs.dev/svgjs" width="1500" height="268" viewBox="0 0 1500 268"><g transform="matrix(1,0,0,1,-0.9090909090909918,-0.47443550823359715)"><svg viewBox="0 0 396 71" data-background-color="#013c38" preserveAspectRatio="xMidYMid meet" height="268" width="1500" xmlns="http://www.w3.org/2000/svg" xmlns:xlink="http://www.w3.org/1999/xlink"><g id="tight-bounds" transform="matrix(1,0,0,1,0.2400000000000091,0.12569000404695885)"><svg viewBox="0 0 395.52 70.7486199919061" height="70.7486199919061" width="395.52"><g><svg viewBox="0 0 395.52 70.7486199919061" height="70.7486199919061" width="395.52"><g><svg viewBox="0 0 395.52 70.7486199919061" height="70.7486199919061" width="395.52"><g id="textblocktransform"><svg viewBox="0 0 395.52 70.7486199919061" height="70.7486199919061" width="395.52" id="textblock"><g><svg viewBox="0 0 395.52 70.7486199919061" height="70.7486199919061" width="395.52"><g transform="matrix(1,0,0,1,0,0)"><svg width="395.52" viewBox="0.45 -27.65 246.22 44.2" height="70.7486199919061" data-palette-color="#d6df36"><g class="wordmark-text-0" data-fill-palette-color="primary" id="text-0"><path d="M3-0.75L2.45-0.75Q1.7-0.75 1.25-1.33 0.8-1.9 0.63-2.65 0.45-3.4 0.45-4L0.45-4Q0.45-4.65 0.75-5.08 1.05-5.5 1.45-5.95L1.45-5.95 1.4-6Q1-6.4 1-6.85L1-6.85Q1-7.45 1.48-8 1.95-8.55 2.3-8.95L2.3-8.95Q3.15-9.95 4.45-10.3 5.75-10.65 7-10.65L7-10.65Q7.3-10.65 8.25-10.38 9.2-10.1 10-9.7L10-9.7Q10-10.15 9.98-10.58 9.95-11 9.8-11.5L9.8-11.5Q9.75-11.75 9.68-12.05 9.6-12.35 9.6-12.65L9.6-12.65Q9.6-13 9.75-13.3L9.75-13.3Q9.15-13.55 9.15-14.2L9.15-14.2Q9.15-16 7.9-16L7.9-16Q6.35-16 5.15-15.7L5.15-15.7Q4.5-15.4 4.05-14.83 3.6-14.25 2.95-13.25L2.95-13.25Q2.85-13.05 2.85-12.95L2.85-12.95Q2.95-12.75 3.03-12.58 3.1-12.4 3.2-12.25L3.2-12.25Q3.55-12 4-12L4-12Q4-12 4.23-12.25 4.45-12.5 4.45-12.55L4.45-12.55 4.45-12.75Q4.25-13 4.25-13.25L4.25-13.25Q4.25-13.85 5-13.85L5-13.85Q5.35-13.85 5.63-13.6 5.9-13.35 5.9-12.75L5.9-12.75 5.9-12.55Q5.9-12.05 5.3-11.3 4.7-10.55 4-10.55L4-10.55Q3.75-10.55 3.48-10.63 3.2-10.7 2.95-10.75L2.95-10.75Q2.75-10.75 2.55-10.85 2.35-10.95 2.1-11.25L2.1-11.25Q1.8-11.5 1.58-11.85 1.35-12.2 1.35-12.65L1.35-12.65Q1.3-12.9 1.23-13.08 1.15-13.25 1.15-13.3L1.15-13.3Q1.15-13.55 1.23-13.73 1.3-13.9 1.35-14.05L1.35-14.05Q1.15-14.4 1.35-14.7L1.35-14.7Q1.8-15.7 2.65-16.25 3.5-16.8 4.5-17.05L4.5-17.05Q5.3-17.45 6.18-17.55 7.05-17.65 8.1-17.65L8.1-17.65Q9.4-17.65 9.68-17.35 9.95-17.05 10.4-16.1L10.4-16.1Q11.35-15.65 11.78-15.18 12.2-14.7 12.35-13.4L12.35-13.4Q12.5-12.1 12.45-10.75 12.4-9.4 12.58-8.13 12.75-6.85 13.4-5.65L13.4-5.65Q13.45-5.5 13.65-5.2L13.65-5.2Q14.1-5.45 14.55-5.7 15-5.95 15.5-6L15.5-6 15.65-6Q16-6 16.18-5.78 16.35-5.55 16.35-5.3L16.35-5.3Q16.35-5.1 16.2-4.88 16.05-4.65 15.75-4.6L15.75-4.6Q15.45-4.55 14.8-4.15 14.15-3.75 13.55-3.55L13.55-3.55Q12.9-3.25 12.4-2.83 11.9-2.4 11.35-1.7L11.35-1.7Q11.05-1.4 10.7-1.4L10.7-1.4Q9.9-1.4 10.05-2.35L10.05-2.35Q10.1-2.45 10.18-3.05 10.25-3.65 10.3-4.35L10.3-4.35Q10-3.9 9.47-3.48 8.95-3.05 8-2.55L8-2.55Q7.9-2.5 7.63-2.38 7.35-2.25 7.2-2.2L7.2-2.2Q6.7-2 6.25-1.73 5.8-1.45 5.35-1.05L5.35-1.05Q5.15-0.85 4.88-0.75 4.6-0.65 4.15-0.65L4.15-0.65Q3.95-0.65 3.65-0.68 3.35-0.7 3-0.75L3-0.75ZM4.75-3.3L5.7-3.25Q5.95-3.25 6.05-3.3L6.05-3.3Q7.35-3.95 8.05-4.23 8.75-4.5 9.13-5.03 9.5-5.55 9.8-6.9L9.8-6.9Q9.8-7 9.83-7.13 9.85-7.25 9.85-7.45L9.85-7.45Q9.85-8.1 9.7-8.3L9.7-8.3Q9.05-9 8.15-9L8.15-9Q7.65-9 7.18-8.9 6.7-8.8 6.25-8.85L6.25-8.85Q6.15-8.2 5.55-8.2L5.55-8.2 5.3-8.2Q5.1-7.65 4.6-7.65L4.6-7.65 4.45-7.65Q4.25-6.95 3.75-6.48 3.25-6 3.25-5.2L3.25-5.2 3.25-4.85Q3.75-4.35 3.75-3.75L3.75-3.75Q4.05-3.65 4.28-3.48 4.5-3.3 4.7-3.3L4.7-3.3 4.75-3.3ZM17.15 2.85L17.15 2.85Q16.8 2.85 16.62 2.63 16.45 2.4 16.45 2.15L16.45 2.15Q16.45 1.65 16.95 1.45L16.95 1.45 17.8 1.15Q18.2 1 18.6 0.8 19 0.6 19.35 0.4L19.35 0.4Q20.25-0.5 20.37-1.68 20.5-2.85 20.47-3.9 20.45-4.95 20.9-5.55L20.9-5.55Q20.2-6.1 20.2-6.6L20.2-6.6Q20.2-7 20.5-7.2L20.5-7.2Q20.55-7.6 20.67-8.08 20.8-8.55 20.85-8.9L20.85-8.9 19.15-8.9Q18.95-8.85 18.8-8.78 18.65-8.7 18.45-8.65L18.45-8.65Q18.4-8.65 18.35-8.63 18.3-8.6 18.2-8.6L18.2-8.6Q17.9-8.6 17.72-8.85 17.55-9.1 17.55-9.35L17.55-9.35Q17.55-9.75 17.85-9.95L17.85-9.95Q18.05-10.25 18.4-10.3L18.4-10.3Q18.65-10.35 18.85-10.4 19.05-10.45 19.25-10.5L19.25-10.5Q20.4-11.05 21.27-11.85 22.15-12.65 23.05-13.38 23.95-14.1 25.1-14.5L25.1-14.5Q25.25-14.55 25.45-14.55L25.45-14.55Q26.15-14.55 26.15-13.95L26.15-13.95Q26.15-13.7 25.9-13.35L25.9-13.35Q25.6-13 25.07-12.35 24.55-11.7 24.12-10.95 23.7-10.2 23.7-9.55L23.7-9.55Q23.7-9.45 23.72-9.35 23.75-9.25 23.8-9.15L23.8-9.15Q24.15-8.35 24.15-7.75L24.15-7.75Q24.45-8.5 24.7-8.8 24.95-9.1 25.3-9.3 25.65-9.5 26.15-9.9L26.15-9.9 26.15-10Q26.15-10.55 26.75-10.7L26.75-10.7 26.95-10.75Q27.35-11.3 27.77-11.73 28.2-12.15 29-12.45L29-12.45 29-12.55Q29.2-13.25 30.1-13.25L30.1-13.25Q32.4-13.25 33.15-11.98 33.9-10.7 33.9-8.85L33.9-8.85Q33.9-7.3 33.6-5.55 33.3-3.8 33.3-2.4L33.3-2.4Q33.3-1.7 33.45-1.15L33.45-1.15Q33.5-1.05 33.97-0.68 34.45-0.3 34.95-0.05L34.95-0.05 35.2 0 35.5 0.05 35.65 0.1Q35.65 0.2 36 0.55 36.35 0.9 36.35 1.15L36.35 1.15Q36.35 1.55 35.45 1.55L35.45 1.55Q35.25 1.55 35.05 1.48 34.85 1.4 34.6 1.35L34.6 1.35Q34.1 1.25 33.65 1.15 33.2 1.05 32.7 1L32.7 1 32.3 0.95Q32.25 0.95 32.2 0.93 32.15 0.9 32.15 0.9L32.15 0.9Q31.55 0.9 30.52 0.98 29.5 1.05 28.7 1.3L28.7 1.3Q28.45 1.4 28.25 1.53 28.05 1.65 27.85 1.75L27.85 1.75Q27.7 1.85 27.4 1.85L27.4 1.85Q26.7 1.85 26.7 1.2L26.7 1.2Q26.7 0.85 27.05 0.55L27.05 0.55Q27.5 0.2 28.2-0.05L28.2-0.05Q28.85-0.35 29.5-0.75 30.15-1.15 30.2-1.45L30.2-1.45Q30.15-1.55 30.07-1.65 30-1.75 29.9-1.8L29.9-1.8Q29.45-2.35 29.45-2.85L29.45-2.85Q29.45-3.35 29.72-3.6 30-3.85 30.15-3.95L30.15-3.95Q29.85-4.2 29.85-4.6L29.85-4.6Q29.85-5.15 30.17-5.83 30.5-6.5 30.5-6.95L30.5-6.95Q30.5-7.7 30.2-8.2 29.9-8.7 29.57-9.15 29.25-9.6 29.15-10.25L29.15-10.25Q28.8-10.05 28.42-9.83 28.05-9.6 27.65-9.4L27.65-9.4Q27.4-9.15 27.12-8.9 26.85-8.65 26.5-8.4L26.5-8.4Q26.3-8.25 26.1-8.1 25.9-7.95 25.65-7.7L25.65-7.7Q25.4-7.05 25.27-6.8 25.15-6.55 24.5-6L24.5-6Q23.95-5.5 23.75-5.15L23.75-5.15 23.75-5Q23.75-4.85 23.77-4.67 23.8-4.5 23.8-4.35L23.8-4.35Q23.8-3.5 23.62-2.65 23.45-1.8 23.35-0.95L23.35-0.95Q23.95-0.85 24.25-0.28 24.55 0.3 24.95 0.6L24.95 0.6Q25.25 0.75 25.5 1L25.5 1Q25.75 1.2 25.75 1.55L25.75 1.55Q25.75 1.85 25.52 2.08 25.3 2.3 25.05 2.3L25.05 2.3Q24.8 2.3 24.6 2.1L24.6 2.1Q24.3 1.9 24.1 1.85L24.1 1.85Q23.6 2.05 23.02 1.68 22.45 1.3 21.6 1.3L21.6 1.3Q21.25 1.3 20.87 1.4 20.5 1.5 20.15 1.65L20.15 1.65Q19.9 1.85 19.55 2.02 19.2 2.2 18.8 2.35L18.8 2.35 18.35 2.5Q18.15 2.55 17.9 2.65 17.65 2.75 17.4 2.8L17.4 2.8Q17.35 2.8 17.3 2.83 17.25 2.85 17.15 2.85ZM46.95-18.9L46.95-18.9Q46.2-18.9 45.4-19.53 44.6-20.15 44.6-21.05L44.6-21.05Q44.6-21.45 45.05-21.9 45.5-22.35 45.8-22.6L45.8-22.6 46.5-23.15Q46.6-23.25 46.82-23.28 47.05-23.3 47.2-23.3L47.2-23.3Q47.85-23.3 48.3-22.68 48.75-22.05 48.75-21.6L48.75-21.6Q48.75-21.2 48.57-20.55 48.4-19.9 48.02-19.4 47.65-18.9 46.95-18.9ZM47.45 0.4L47.45 0.4Q47.45 0.4 47.15 0.3L47.15 0.3Q47.05 0.3 46.9 0.25 46.75 0.2 46.6 0.15L46.6 0.15Q46.25 0.05 45.95-0.03 45.65-0.1 45.55-0.1L45.55-0.1Q45.35-0.1 45.05 0L45.05 0Q44.75 0.1 44.65 0.1L44.65 0.1Q44.6 0.1 44.47 0.05 44.35 0 44.3 0L44.3 0Q44.15-0.05 44-0.1 43.85-0.15 43.65-0.15L43.65-0.15Q43.4-0.25 43.05-0.23 42.7-0.2 42.55-0.2L42.55-0.2 39.5-0.15Q39.35-0.15 39.3-0.2L39.3-0.2Q38.9 0 38.6 0L38.6 0 38.45 0Q38.1 0.5 37.75 0.5L37.75 0.5Q37.4 0.5 37.2 0.1 37-0.3 37-0.8L37-0.8Q37-1.5 37.7-1.5L37.7-1.5 37.85-1.5Q38.15-1.75 38.55-1.75L38.55-1.75Q38.7-1.75 39-1.65L39-1.65Q39.3-1.75 39.5-1.75L39.5-1.75Q39.8-1.75 40.02-1.68 40.25-1.6 40.55-1.6L40.55-1.6Q40.8-1.6 41.2-1.8 41.6-2 41.9-2.2L41.9-2.2 42.05-2.65Q41.7-3.25 41.7-3.7L41.7-3.7Q41.7-4.3 42.4-4.7L42.4-4.7Q42.25-5 42.25-5.25L42.25-5.25Q42.25-5.6 42.6-5.95L42.6-5.95Q42.15-6.2 42.15-6.6L42.15-6.6Q42.15-6.85 42.35-7.2L42.35-7.2Q42.45-7.3 42.5-7.4L42.5-7.4Q41.95-7.65 41.95-8.35L41.95-8.35Q41.95-8.95 42.55-9.05L42.55-9.05Q42.55-9.15 42.52-9.2 42.5-9.25 42.5-9.3L42.5-9.3Q42.5-9.6 42.65-9.8 42.8-10 43-10.15L43-10.15Q42.65-10.55 42.75-11L42.75-11Q42.55-11.2 42.1-11.1L42.1-11.1Q42.05-11.1 42-11.08 41.95-11.05 41.85-11.05L41.85-11.05Q41.55-10.95 41.45-10.95L41.45-10.95 40.95-11.05Q40.85-10.95 40.85-10.9L40.85-10.9Q40.3-10.4 39.87-10.3 39.45-10.2 39.45-10.2L39.45-10.2Q38.75-10.2 38.75-10.95L38.75-10.95Q38.75-11.2 38.92-11.43 39.1-11.65 39.45-11.65L39.45-11.65 39.6-11.65Q40-12.35 40.9-12.75 41.8-13.15 42.6-13.25L42.6-13.25Q42.85-13.4 43.1-13.55 43.35-13.7 43.55-13.85L43.55-13.85Q43.65-13.9 43.72-14 43.8-14.1 43.85-14.15L43.85-14.15 43.95-14.25Q44-14.3 44-14.33 44-14.35 44-14.35L44-14.35 44.4-14.6 44.85-14.85Q44.9-14.85 45.1-15.05L45.1-15.05Q45.25-15.2 45.52-15.45 45.8-15.7 46-15.65L46-15.65Q46.5-15.65 46.62-15.4 46.75-15.15 46.75-14.75L46.75-14.75Q46.8-14.4 46.75-14.3L46.75-14.3Q46.7-14.25 46.62-14.08 46.55-13.9 46.45-13.5L46.45-13.5Q46.25-12.85 46.07-12.08 45.9-11.3 45.7-10.55L45.7-10.55Q45.65-10.35 45.7-10.13 45.75-9.9 45.7-9.65L45.7-9.65Q45.6-9.15 45.5-8.68 45.4-8.2 45.35-7.7L45.35-7.7Q45.3-7.1 45.27-6.23 45.25-5.35 45.25-4.67 45.25-4 45.25-3.85L45.25-3.85Q45.25-3.7 45.32-3.2 45.4-2.7 45.5-2.35L45.5-2.35Q45.8-1.65 46.55-1.1L46.55-1.1Q46.65-1.05 46.8-1 46.95-0.95 47.05-0.9L47.05-0.9 47.65-0.75Q47.85-0.7 48.02-0.6 48.2-0.5 48.2-0.35L48.2-0.35 48.2-0.3Q48.2-0.05 47.95 0.18 47.7 0.4 47.45 0.4ZM74.84 4.5L74.84 4.5Q74.04 4.35 72.77 3.8 71.49 3.25 70.34 2.95L70.34 2.95Q70.04 3.05 69.79 3.05L69.79 3.05Q69.54 3.05 69.04 3 68.54 2.95 68.12 2.8 67.69 2.65 67.69 2.3L67.69 2.3Q67.69 2.05 67.99 1.7L67.99 1.7Q68.34 1.3 69.09 1.3L69.09 1.3Q69.64 1.3 70.14 1.45L70.14 1.45Q70.49 1.1 70.52 0.3 70.54-0.5 70.54-0.85L70.54-0.85Q70.54-1.3 70.74-1.58 70.94-1.85 71.14-2L71.14-2 71.24-2.1Q71.44-2.8 71.44-3.78 71.44-4.75 71.52-5.65 71.59-6.55 72.04-7.1L72.04-7.1Q72.19-7.3 72.17-7.25 72.14-7.2 72.24-7.4L72.24-7.4Q72.54-7.8 72.22-8.15 71.89-8.5 71.89-9.1L71.89-9.1Q71.89-9.35 72.04-9.7 72.19-10.05 72.54-10.45L72.54-10.45Q72.64-10.55 72.64-10.58 72.64-10.6 72.64-10.6L72.64-10.6Q72.64-11.05 72.14-11.78 71.64-12.5 70.74-12.75L70.74-12.75Q70.24-12.55 69.74-12.23 69.24-11.9 68.79-11.5L68.79-11.5Q68.54-11.15 68.32-10.9 68.09-10.65 67.89-10.55L67.89-10.55Q67.84-10.5 67.69-10.48 67.54-10.45 67.44-10.35L67.44-10.35Q67.04-9.75 66.74-9.2L66.74-9.2Q66.69-8.7 66.87-8.25 67.04-7.8 66.94-7.15L66.94-7.15Q66.89-6.65 66.87-5.95 66.84-5.25 66.44-4.85L66.44-4.85 66.49-4.75Q66.54-4.55 66.59-4.23 66.64-3.9 66.64-3.6L66.64-3.6Q66.64-3.25 66.52-2.95 66.39-2.65 66.09-2.55L66.09-2.55Q66.39-2.25 66.49-2.1L66.49-2.1 66.69-1.85Q66.94-1.5 67.19-1.45L67.19-1.45 67.74-1.3Q68.49-1.25 68.49-0.7L68.49-0.7Q68.49-0.05 67.64 0.1L67.64 0.1Q67.59 0.1 67.52 0.13 67.44 0.15 67.34 0.15L67.34 0.15Q66.94 0.15 66.29-0.25L66.29-0.25Q65.79-0.45 65.32-0.63 64.84-0.8 64.29-0.8L64.29-0.8Q63.84-0.8 63.42-0.68 62.99-0.55 62.59-0.45L62.59-0.45Q62.39-0.25 62.04-0.15 61.69-0.05 61.39 0.05L61.39 0.05Q61.24 0.25 60.84 0.25L60.84 0.25 60.24 0.25Q59.94 0.25 59.69 0.28 59.44 0.3 59.34 0.3L59.34 0.3Q58.49 0.3 58.49-0.2L58.49-0.2Q58.49-0.55 58.79-0.85 59.09-1.15 59.44-1.2L59.44-1.2Q59.69-1.35 60.04-1.35L60.04-1.35Q60.54-1.35 60.99-1.48 61.44-1.6 61.89-1.7L61.89-1.7 62.04-2Q62.19-2.05 62.37-2.05 62.54-2.05 62.69-2.05L62.69-2.05Q62.74-2.35 62.69-2.63 62.64-2.9 62.64-3.15L62.64-3.15Q62.64-3.55 62.94-4.05L62.94-4.05Q63.29-4.6 63.39-5.28 63.49-5.95 63.49-6.65L63.49-6.65Q63.49-7.05 63.47-7.43 63.44-7.8 63.44-8.15L63.44-8.15Q63.44-9.9 63.14-11.13 62.84-12.35 61.09-12.9L61.09-12.9 60.84-13.05Q60.19-12.8 59.62-12.4 59.04-12 58.44-11.65L58.44-11.65Q57.49-11.15 57.17-11.05 56.84-10.95 56.64-10.1L56.64-10.1Q56.64-9.7 56.67-9.33 56.69-8.95 56.69-8.65L56.69-8.65Q56.69-7.85 56.44-7.55L56.44-7.55Q56.34-7.4 56.04-7.2L56.04-7.2 55.99-7.15 56.09-7.05Q56.64-6.55 56.64-5.9L56.64-5.9Q56.64-5.25 56.34-4.58 56.04-3.9 56.04-3.15L56.04-3.15Q56.09-3.15 56.52-2.93 56.94-2.7 57.42-2.43 57.89-2.15 58.04-2.05L58.04-2.05Q58.59-1.8 58.59-1.35L58.59-1.35Q58.59-0.65 57.74-0.65L57.74-0.65Q57.39-0.65 56.79-1.03 56.19-1.4 55.79-1.6L55.79-1.6 55.74-1.55Q55.44-1.25 55.04-1.25L55.04-1.25Q54.74-1.25 54.54-1.33 54.34-1.4 54.04-1.4L54.04-1.4Q53.64-1.4 53.22-1.28 52.79-1.15 52.39-1.05L52.39-1.05Q52.29-0.95 52.09-0.85L52.09-0.85Q51.74-0.45 50.84-0.05 49.94 0.35 49.49 0.35L49.49 0.35Q48.64 0.35 48.64-0.3L48.64-0.3Q48.64-1 49.49-1.25L49.49-1.25Q49.74-1.35 50.07-1.48 50.39-1.6 50.74-1.75L50.74-1.75Q50.84-2.4 51.44-2.4L51.44-2.4 51.84-2.4Q52.74-3.05 52.89-3.85L52.89-3.85Q53.09-4.95 53.27-5.3 53.44-5.65 53.44-6.45L53.44-6.45Q53.44-7.25 53.32-8 53.19-8.75 53.19-9.45L53.19-9.45Q53.19-10.4 53.59-11.2L53.59-11.2 53.64-11.35Q53.49-11.5 53.34-11.6L53.34-11.6 53.09-11.8Q52.89-11.95 52.64-12.25L52.64-12.25Q52.39-12.2 52.09-12.1 51.79-12 51.44-12L51.44-12Q51.24-12 51.09-11.95 50.94-11.9 50.69-11.9L50.69-11.9Q50.34-11.9 50.17-12.15 49.99-12.4 49.99-12.65L49.99-12.65Q49.99-13.4 50.69-13.4L50.69-13.4 51.44-13.4Q51.89-13.4 52.29-13.63 52.69-13.85 53.19-13.85L53.19-13.85 53.44-13.85 53.59-13.9 53.79-13.95Q54.49-14.2 55.29-14.85 56.09-15.5 56.49-15.85L56.49-15.85Q56.74-16.1 57.09-16.1L57.09-16.1Q57.74-16.1 57.74-15.45L57.74-15.45Q57.74-15.15 57.64-15L57.64-15Q57.09-13.75 56.84-12.55L56.84-12.55 56.94-12.6Q58.24-13.25 59.54-14.05 60.84-14.85 62.39-14.85L62.39-14.85Q63.39-14.85 64.69-13.88 65.99-12.9 66.59-11.65L66.59-11.65Q67.29-12.5 68.24-13.2L68.24-13.2Q68.34-13.35 68.47-13.5 68.59-13.65 68.79-13.85L68.79-13.85Q69.04-14.05 69.34-14.2 69.64-14.35 69.99-14.3L69.99-14.3 70.14-14.3Q71.39-14.85 72.59-14.85L72.59-14.85Q73.84-14.85 74.54-14 75.24-13.15 75.54-11.98 75.84-10.8 75.84-9.85L75.84-9.85Q75.84-8.6 75.44-7.1 75.04-5.6 74.49-4.25L74.49-4.25Q74.44-4.2 74.44-4.05L74.44-4.05Q74.44-3.75 74.57-3.33 74.69-2.9 74.59-2.55L74.59-2.55Q74.44-1.65 73.99-0.65 73.54 0.35 73.29 1.35L73.29 1.35Q73.29 1.4 73.39 1.6L73.39 1.6Q73.74 2.75 75.19 3.1L75.19 3.1Q75.79 3.25 75.79 3.8L75.79 3.8Q75.79 4.1 75.54 4.33 75.29 4.55 74.84 4.5ZM79.44-0.75L78.89-0.75Q78.14-0.75 77.69-1.33 77.24-1.9 77.07-2.65 76.89-3.4 76.89-4L76.89-4Q76.89-4.65 77.19-5.08 77.49-5.5 77.89-5.95L77.89-5.95 77.84-6Q77.44-6.4 77.44-6.85L77.44-6.85Q77.44-7.45 77.92-8 78.39-8.55 78.74-8.95L78.74-8.95Q79.59-9.95 80.89-10.3 82.19-10.65 83.44-10.65L83.44-10.65Q83.74-10.65 84.69-10.38 85.64-10.1 86.44-9.7L86.44-9.7Q86.44-10.15 86.42-10.58 86.39-11 86.24-11.5L86.24-11.5Q86.19-11.75 86.12-12.05 86.04-12.35 86.04-12.65L86.04-12.65Q86.04-13 86.19-13.3L86.19-13.3Q85.59-13.55 85.59-14.2L85.59-14.2Q85.59-16 84.34-16L84.34-16Q82.79-16 81.59-15.7L81.59-15.7Q80.94-15.4 80.49-14.83 80.04-14.25 79.39-13.25L79.39-13.25Q79.29-13.05 79.29-12.95L79.29-12.95Q79.39-12.75 79.47-12.58 79.54-12.4 79.64-12.25L79.64-12.25Q79.99-12 80.44-12L80.44-12Q80.44-12 80.67-12.25 80.89-12.5 80.89-12.55L80.89-12.55 80.89-12.75Q80.69-13 80.69-13.25L80.69-13.25Q80.69-13.85 81.44-13.85L81.44-13.85Q81.79-13.85 82.07-13.6 82.34-13.35 82.34-12.75L82.34-12.75 82.34-12.55Q82.34-12.05 81.74-11.3 81.14-10.55 80.44-10.55L80.44-10.55Q80.19-10.55 79.92-10.63 79.64-10.7 79.39-10.75L79.39-10.75Q79.19-10.75 78.99-10.85 78.79-10.95 78.54-11.25L78.54-11.25Q78.24-11.5 78.02-11.85 77.79-12.2 77.79-12.65L77.79-12.65Q77.74-12.9 77.67-13.08 77.59-13.25 77.59-13.3L77.59-13.3Q77.59-13.55 77.67-13.73 77.74-13.9 77.79-14.05L77.79-14.05Q77.59-14.4 77.79-14.7L77.79-14.7Q78.24-15.7 79.09-16.25 79.94-16.8 80.94-17.05L80.94-17.05Q81.74-17.45 82.62-17.55 83.49-17.65 84.54-17.65L84.54-17.65Q85.84-17.65 86.12-17.35 86.39-17.05 86.84-16.1L86.84-16.1Q87.79-15.65 88.22-15.18 88.64-14.7 88.79-13.4L88.79-13.4Q88.94-12.1 88.89-10.75 88.84-9.4 89.02-8.13 89.19-6.85 89.84-5.65L89.84-5.65Q89.89-5.5 90.09-5.2L90.09-5.2Q90.54-5.45 90.99-5.7 91.44-5.95 91.94-6L91.94-6 92.09-6Q92.44-6 92.62-5.78 92.79-5.55 92.79-5.3L92.79-5.3Q92.79-5.1 92.64-4.88 92.49-4.65 92.19-4.6L92.19-4.6Q91.89-4.55 91.24-4.15 90.59-3.75 89.99-3.55L89.99-3.55Q89.34-3.25 88.84-2.83 88.34-2.4 87.79-1.7L87.79-1.7Q87.49-1.4 87.14-1.4L87.14-1.4Q86.34-1.4 86.49-2.35L86.49-2.35Q86.54-2.45 86.62-3.05 86.69-3.65 86.74-4.35L86.74-4.35Q86.44-3.9 85.92-3.48 85.39-3.05 84.44-2.55L84.44-2.55Q84.34-2.5 84.07-2.38 83.79-2.25 83.64-2.2L83.64-2.2Q83.14-2 82.69-1.73 82.24-1.45 81.79-1.05L81.79-1.05Q81.59-0.85 81.32-0.75 81.04-0.65 80.59-0.65L80.59-0.65Q80.39-0.65 80.09-0.68 79.79-0.7 79.44-0.75L79.44-0.75ZM81.19-3.3L82.14-3.25Q82.39-3.25 82.49-3.3L82.49-3.3Q83.79-3.95 84.49-4.23 85.19-4.5 85.57-5.03 85.94-5.55 86.24-6.9L86.24-6.9Q86.24-7 86.27-7.13 86.29-7.25 86.29-7.45L86.29-7.45Q86.29-8.1 86.14-8.3L86.14-8.3Q85.49-9 84.59-9L84.59-9Q84.09-9 83.62-8.9 83.14-8.8 82.69-8.85L82.69-8.85Q82.59-8.2 81.99-8.2L81.99-8.2 81.74-8.2Q81.54-7.65 81.04-7.65L81.04-7.65 80.89-7.65Q80.69-6.95 80.19-6.48 79.69-6 79.69-5.2L79.69-5.2 79.69-4.85Q80.19-4.35 80.19-3.75L80.19-3.75Q80.49-3.65 80.72-3.48 80.94-3.3 81.14-3.3L81.14-3.3 81.19-3.3ZM102.89 0.3L102.89 0.3Q102.84 0.3 102.76 0.28 102.69 0.25 102.59 0.25L102.59 0.25 101.99 0.1Q101.64 0 101.36-0.08 101.09-0.15 100.99-0.15L100.99-0.15Q100.79-0.15 100.49-0.05L100.49-0.05Q100.19 0.05 100.04 0.05L100.04 0.05Q99.99 0.05 99.89 0 99.79-0.05 99.74-0.05L99.74-0.05Q99.59-0.1 99.44-0.15 99.29-0.2 99.09-0.2L99.09-0.2Q98.84-0.3 98.49-0.28 98.14-0.25 97.99-0.25L97.99-0.25Q97.94-0.25 97.56-0.25 97.19-0.25 96.74-0.2L96.74-0.2Q96.09-0.05 95.41 0.05 94.74 0.15 94.49 0.15L94.49 0.15Q94.24 0.15 94.01 0.05 93.79-0.05 93.54-0.05L93.54-0.05Q93.19-0.05 93.01-0.3 92.84-0.55 92.84-0.8L92.84-0.8Q92.84-1.55 93.54-1.55L93.54-1.55Q93.79-1.55 94.04-1.45 94.29-1.35 94.49-1.35L94.49-1.35 94.74-1.35Q94.89-1.45 95.01-1.5 95.14-1.55 95.14-1.55L95.14-1.55Q95.24-1.55 95.54-1.45L95.54-1.45Q95.94-1.55 96.34-1.63 96.74-1.7 96.94-1.75L96.94-1.75Q97.04-2.4 97.16-2.98 97.29-3.55 98.19-3.6L98.19-3.6 98.19-3.65 98.34-3.9Q98.44-4.1 98.61-4.33 98.79-4.55 99.04-4.75L99.04-4.75Q98.94-5.15 98.54-5.73 98.14-6.3 98.14-6.8L98.14-6.8Q98.14-7.15 98.44-7.35L98.44-7.35Q98.54-7.45 98.59-8.2 98.64-8.95 98.71-9.83 98.79-10.7 98.99-11.05L98.99-11.05Q99.09-11.25 98.96-11.63 98.84-12 98.84-12.45L98.84-12.45Q98.84-13.1 99.24-13.65L99.24-13.65Q99.24-14.25 99.64-14.75L99.64-14.75Q99.04-15.15 99.04-15.7L99.04-15.7Q99.04-16.1 99.19-16.55L99.19-16.55Q99.19-16.5 99.21-16.55 99.24-16.6 99.29-16.95L99.29-16.95Q99.34-17.4 99.19-17.78 99.04-18.15 99.29-18.4L99.29-18.4Q99.24-18.5 99.21-18.6 99.19-18.7 99.19-18.8L99.19-18.8Q99.19-19.35 99.74-19.65L99.74-19.65 99.89-19.75Q99.89-19.8 99.86-19.8 99.84-19.8 99.84-19.85L99.84-19.85Q99.79-20.25 99.64-20.53 99.49-20.8 99.09-20.8L99.09-20.8Q98.99-20.8 98.59-20.7L98.59-20.7Q98.29-20.6 98.19-20.6L98.19-20.6Q98.09-20.6 97.64-20.75 97.19-20.9 97.19-21.1L97.19-21.1Q97.19-21.35 97.34-21.58 97.49-21.8 97.64-21.9L97.64-21.9Q98.19-22.2 98.94-22.6 99.69-23 100.39-23.5L100.39-23.5 100.64-23.8 100.74-23.95Q100.79-23.95 100.79-23.98 100.79-24 100.84-24L100.84-24 101.19-24.25 101.64-24.5Q101.69-24.55 101.76-24.6 101.84-24.65 101.89-24.7L101.89-24.7Q102.09-24.9 102.36-25.13 102.64-25.35 102.84-25.35L102.84-25.35Q103.34-25.35 103.44-25.1 103.54-24.85 103.59-24.45L103.59-24.45Q103.59-24.1 103.54-24L103.54-24 103.24-23.2Q102.99-22.55 102.81-21.78 102.64-21 102.44-20.25L102.44-20.25Q102.39-20.05 102.44-19.8 102.49-19.55 102.44-19.35L102.44-19.35Q102.34-18.85 102.21-18.38 102.09-17.9 102.04-17.4L102.04-17.4Q101.99-17 101.86-15.55 101.74-14.1 101.59-12.18 101.44-10.25 101.29-8.4 101.14-6.55 101.04-5.28 100.94-4 100.94-3.95L100.94-3.95Q100.94-3.8 100.96-3.3 100.99-2.8 101.09-2.45L101.09-2.45Q101.29-1.7 102.09-1.15L102.09-1.15Q102.19-1.1 102.34-1.05 102.49-1 102.59-0.95L102.59-0.95Q102.69-0.9 102.84-0.9 102.99-0.9 103.14-0.8L103.14-0.8Q103.34-0.75 103.51-0.7 103.69-0.65 103.69-0.45L103.69-0.45Q103.69-0.2 103.41 0.05 103.14 0.3 102.89 0.3Z" fill="#d6df36" data-fill-palette-color="primary"></path><path d="M114.59 0.5L114.59 0.5Q114.44 0.6 114.14 0.6L114.14 0.6Q113.49 0.6 113.49-0.05L113.49-0.05Q113.49-0.4 113.79-0.7L113.79-0.7Q114.49-1.3 115.29-1.68 116.09-2.05 116.89-2.25L116.89-2.25Q117.09-2.45 117.14-2.55L117.14-2.55Q117.09-2.65 117.09-2.85L117.09-2.85Q117.09-3.35 117.54-3.65L117.54-3.65Q117.99-4.45 118.21-5.98 118.44-7.5 118.59-9.05 118.74-10.6 118.84-11.35L118.84-11.35Q119.19-13.5 119.74-15.6 120.29-17.7 120.34-19.85L120.34-19.85Q120.34-20.25 120.46-20.55 120.59-20.85 120.74-21.2L120.74-21.2 120.69-21.2Q120.09-21.35 120.09-21.75L120.09-21.75Q120.09-22.05 120.31-22.43 120.54-22.8 120.69-23.1L120.69-23.1Q120.44-22.85 120.01-22.65 119.59-22.45 118.89-22.45L118.89-22.45Q118.74-22.45 118.61-22.53 118.49-22.6 118.34-22.6L118.34-22.6Q117.99-22.6 117.31-22.23 116.64-21.85 116.54-21.6L116.54-21.6Q116.34-21.15 115.94-21.15L115.94-21.15Q115.59-21.15 115.31-21.48 115.04-21.8 115.24-22.2L115.24-22.2Q115.59-22.95 116.64-23.5 117.69-24.05 118.34-24L118.34-24 118.39-24Q118.59-24.1 118.64-24.1L118.64-24.1Q119.04-24.2 119.39-24.33 119.74-24.45 120.09-24.6L120.09-24.6 120.34-25Q120.94-25.75 121.69-26.05 122.44-26.35 123.19-26.6 123.94-26.85 124.49-27.4L124.49-27.4Q124.74-27.65 125.09-27.65L125.09-27.65Q125.74-27.65 125.74-26.95L125.74-26.95Q125.74-26.7 125.59-26.45L125.59-26.45Q125.09-25.8 124.69-25.33 124.29-24.85 123.84-24.3L123.84-24.3Q123.94-24 123.94-23.65L123.94-23.65Q123.94-23.3 123.79-22.75L123.79-22.75Q123.74-22.7 123.74-22.63 123.74-22.55 123.64-22.5L123.64-22.5Q123.64-22.25 123.66-22.03 123.69-21.8 123.69-21.55L123.69-21.55Q123.69-21.15 123.56-20.68 123.44-20.2 123.04-19.65L123.04-19.65Q122.89-19.5 122.89-19.25L122.89-19.25Q122.89-18.75 123.24-18.23 123.59-17.7 123.59-17L123.59-17Q123.59-16.25 123.24-15.75 122.89-15.25 122.84-14.85L122.84-14.85Q122.89-14.15 123.14-13.45L123.14-13.45Q123.29-13.35 123.44-13.2 123.59-13.05 123.74-12.9L123.74-12.9Q124.24-13.5 124.71-13.63 125.19-13.75 125.64-13.75L125.64-13.75Q126.24-14.25 126.79-14.68 127.34-15.1 127.69-15.45L127.69-15.45 127.79-15.6Q127.54-15.75 127.19-15.8 126.84-15.85 126.54-15.85L126.54-15.85Q126.19-15.85 125.99-16.1 125.79-16.35 125.79-16.6L125.79-16.6Q125.79-17.35 126.54-17.35L126.54-17.35 128.09-17.35Q128.39-17.35 128.79-17.15L128.79-17.15 128.89-17.05 128.99-17.05Q129.54-17.05 129.79-16.85 130.04-16.65 130.34-16.65L130.34-16.65Q130.64-16.75 130.86-16.88 131.09-17 131.44-17L131.44-17 132.24-17Q132.84-17 133.46-17.3 134.09-17.6 134.69-17.65L134.69-17.65 134.89-17.65Q135.64-17.65 135.64-17L135.64-17Q135.64-16.65 135.24-16.35L135.24-16.35Q134.59-15.9 133.99-15.73 133.39-15.55 132.69-15.45L132.69-15.45Q132.49-15.25 132.24-15.25L132.24-15.25Q131.79-15.25 131.64-15L131.64-15 131.49-14.8Q130.99-14.15 130.29-14.15L130.29-14.15Q129.89-14.15 129.69-14.35L129.69-14.35Q129.09-14.15 128.79-13.78 128.49-13.4 128.09-13.03 127.69-12.65 126.84-12.45L126.84-12.45Q126.54-12.25 126.39-12.1L126.39-12.1 125.09-11.05Q125.34-10.7 125.54-10.28 125.74-9.85 125.94-9.4L125.94-9.4Q126.59-9.3 126.59-8.8L126.59-8.8Q126.59-8.7 126.49-8.4L126.49-8.4Q126.49-8.35 126.46-8.33 126.44-8.3 126.44-8.2L126.44-8.2 126.44-8.15Q126.99-7.7 127.39-7.23 127.79-6.75 127.84-5.9L127.84-5.9Q128.59-5.65 129.04-4.95 129.49-4.25 129.84-3.5 130.19-2.75 130.54-2.3L130.54-2.3 130.69-2.35Q131.09-2.35 131.44-2.27 131.79-2.2 132.14-2.1L132.14-2.1Q132.79-2.05 133.36-1.9 133.94-1.75 134.59-1.65L134.59-1.65Q134.99-1.65 135.16-1.43 135.34-1.2 135.34-0.95L135.34-0.95Q135.34-0.2 134.54-0.2L134.54-0.2Q133.89-0.2 133.31-0.38 132.74-0.55 132.14-0.65L132.14-0.65Q132.09-0.65 132.04-0.68 131.99-0.7 131.89-0.7L131.89-0.7Q131.69-0.7 131.51-0.63 131.34-0.55 131.09-0.55L131.09-0.55Q130.54-0.55 130.14-0.85L130.14-0.85Q129.49-0.8 128.51-0.65 127.54-0.5 126.94-0.25L126.94-0.25 126.34 0.2Q126.09 0.4 125.79 0.4L125.79 0.4Q125.09 0.4 125.09-0.25L125.09-0.25Q125.09-0.6 125.39-0.95 125.69-1.3 126.44-1.6L126.44-1.6 126.84-1.85Q126.64-2.2 126.64-2.5L126.64-2.5Q126.64-2.9 126.79-3.25L126.79-3.25Q126.54-3.55 126.44-3.85L126.44-3.85Q126.39-3.95 126.34-4.05 126.29-4.15 126.24-4.25L126.24-4.25 126.14-4.35Q125.49-4.85 125.31-5.28 125.14-5.7 125.06-6.13 124.99-6.55 124.71-7.1 124.44-7.65 123.64-8.4L123.64-8.4Q123.14-8.95 122.66-9.5 122.19-10.05 121.94-10.7L121.94-10.7Q121.84-10.7 121.74-10.73 121.64-10.75 121.54-10.75L121.54-10.75Q121.54-10.6 121.49-10.5L121.49-10.5 121.64-10.3Q121.74-10.1 121.84-9.9 121.94-9.7 121.94-9.45L121.94-9.45Q121.94-9.05 121.71-8.8 121.49-8.55 121.39-8.45L121.39-8.45 121.29-8.35Q121.09-7.7 120.94-6.65 120.79-5.6 120.79-5.05L120.79-5.05Q120.79-3.5 121.41-2.98 122.04-2.45 123.49-2.1L123.49-2.1Q124.14-1.95 124.14-1.4L124.14-1.4Q124.14-1.1 123.91-0.88 123.69-0.65 123.29-0.7L123.29-0.7Q122.09-0.8 121.01-0.9 119.94-1 118.74-1L118.74-1Q118.69-1 118.66-0.98 118.64-0.95 118.59-0.95L118.59-0.95Q118.39-0.95 118.16-0.95 117.94-0.95 117.69-0.9L117.69-0.9 117.49-0.7Q116.84 0.1 116.16 0.08 115.49 0.05 114.59 0.5ZM144.53-18.9L144.53-18.9Q143.78-18.9 142.99-19.53 142.19-20.15 142.19-21.05L142.19-21.05Q142.19-21.45 142.64-21.9 143.09-22.35 143.39-22.6L143.39-22.6 144.09-23.15Q144.19-23.25 144.41-23.28 144.64-23.3 144.78-23.3L144.78-23.3Q145.44-23.3 145.89-22.68 146.34-22.05 146.34-21.6L146.34-21.6Q146.34-21.2 146.16-20.55 145.99-19.9 145.61-19.4 145.24-18.9 144.53-18.9ZM145.03 0.4L145.03 0.4Q145.03 0.4 144.74 0.3L144.74 0.3Q144.64 0.3 144.49 0.25 144.34 0.2 144.19 0.15L144.19 0.15Q143.84 0.05 143.53-0.03 143.24-0.1 143.14-0.1L143.14-0.1Q142.94-0.1 142.64 0L142.64 0Q142.34 0.1 142.24 0.1L142.24 0.1Q142.19 0.1 142.06 0.05 141.94 0 141.89 0L141.89 0Q141.74-0.05 141.59-0.1 141.44-0.15 141.24-0.15L141.24-0.15Q140.99-0.25 140.64-0.23 140.28-0.2 140.14-0.2L140.14-0.2 137.09-0.15Q136.94-0.15 136.89-0.2L136.89-0.2Q136.49 0 136.19 0L136.19 0 136.03 0Q135.69 0.5 135.33 0.5L135.33 0.5Q134.99 0.5 134.79 0.1 134.58-0.3 134.58-0.8L134.58-0.8Q134.58-1.5 135.29-1.5L135.29-1.5 135.44-1.5Q135.74-1.75 136.14-1.75L136.14-1.75Q136.28-1.75 136.59-1.65L136.59-1.65Q136.89-1.75 137.09-1.75L137.09-1.75Q137.39-1.75 137.61-1.68 137.84-1.6 138.14-1.6L138.14-1.6Q138.39-1.6 138.78-1.8 139.19-2 139.49-2.2L139.49-2.2 139.64-2.65Q139.28-3.25 139.28-3.7L139.28-3.7Q139.28-4.3 139.99-4.7L139.99-4.7Q139.84-5 139.84-5.25L139.84-5.25Q139.84-5.6 140.19-5.95L140.19-5.95Q139.74-6.2 139.74-6.6L139.74-6.6Q139.74-6.85 139.94-7.2L139.94-7.2Q140.03-7.3 140.09-7.4L140.09-7.4Q139.53-7.65 139.53-8.35L139.53-8.35Q139.53-8.95 140.14-9.05L140.14-9.05Q140.14-9.15 140.11-9.2 140.09-9.25 140.09-9.3L140.09-9.3Q140.09-9.6 140.24-9.8 140.39-10 140.59-10.15L140.59-10.15Q140.24-10.55 140.34-11L140.34-11Q140.14-11.2 139.69-11.1L139.69-11.1Q139.64-11.1 139.59-11.08 139.53-11.05 139.44-11.05L139.44-11.05Q139.14-10.95 139.03-10.95L139.03-10.95 138.53-11.05Q138.44-10.95 138.44-10.9L138.44-10.9Q137.89-10.4 137.46-10.3 137.03-10.2 137.03-10.2L137.03-10.2Q136.34-10.2 136.34-10.95L136.34-10.95Q136.34-11.2 136.51-11.43 136.69-11.65 137.03-11.65L137.03-11.65 137.19-11.65Q137.59-12.35 138.49-12.75 139.39-13.15 140.19-13.25L140.19-13.25Q140.44-13.4 140.69-13.55 140.94-13.7 141.14-13.85L141.14-13.85Q141.24-13.9 141.31-14 141.39-14.1 141.44-14.15L141.44-14.15 141.53-14.25Q141.59-14.3 141.59-14.33 141.59-14.35 141.59-14.35L141.59-14.35 141.99-14.6 142.44-14.85Q142.49-14.85 142.69-15.05L142.69-15.05Q142.84-15.2 143.11-15.45 143.39-15.7 143.59-15.65L143.59-15.65Q144.09-15.65 144.21-15.4 144.34-15.15 144.34-14.75L144.34-14.75Q144.39-14.4 144.34-14.3L144.34-14.3Q144.28-14.25 144.21-14.08 144.14-13.9 144.03-13.5L144.03-13.5Q143.84-12.85 143.66-12.08 143.49-11.3 143.28-10.55L143.28-10.55Q143.24-10.35 143.28-10.13 143.34-9.9 143.28-9.65L143.28-9.65Q143.19-9.15 143.09-8.68 142.99-8.2 142.94-7.7L142.94-7.7Q142.89-7.1 142.86-6.23 142.84-5.35 142.84-4.67 142.84-4 142.84-3.85L142.84-3.85Q142.84-3.7 142.91-3.2 142.99-2.7 143.09-2.35L143.09-2.35Q143.39-1.65 144.14-1.1L144.14-1.1Q144.24-1.05 144.39-1 144.53-0.95 144.64-0.9L144.64-0.9 145.24-0.75Q145.44-0.7 145.61-0.6 145.78-0.5 145.78-0.35L145.78-0.35 145.78-0.3Q145.78-0.05 145.53 0.18 145.28 0.4 145.03 0.4ZM147.48 2.85L147.48 2.85Q147.13 2.85 146.96 2.63 146.78 2.4 146.78 2.15L146.78 2.15Q146.78 1.65 147.28 1.45L147.28 1.45 148.13 1.15Q148.53 1 148.93 0.8 149.33 0.6 149.68 0.4L149.68 0.4Q150.58-0.5 150.71-1.68 150.83-2.85 150.81-3.9 150.78-4.95 151.23-5.55L151.23-5.55Q150.53-6.1 150.53-6.6L150.53-6.6Q150.53-7 150.83-7.2L150.83-7.2Q150.88-7.6 151.01-8.08 151.13-8.55 151.18-8.9L151.18-8.9 149.48-8.9Q149.28-8.85 149.13-8.78 148.98-8.7 148.78-8.65L148.78-8.65Q148.73-8.65 148.68-8.63 148.63-8.6 148.53-8.6L148.53-8.6Q148.23-8.6 148.06-8.85 147.88-9.1 147.88-9.35L147.88-9.35Q147.88-9.75 148.18-9.95L148.18-9.95Q148.38-10.25 148.73-10.3L148.73-10.3Q148.98-10.35 149.18-10.4 149.38-10.45 149.58-10.5L149.58-10.5Q150.73-11.05 151.61-11.85 152.48-12.65 153.38-13.38 154.28-14.1 155.43-14.5L155.43-14.5Q155.58-14.55 155.78-14.55L155.78-14.55Q156.48-14.55 156.48-13.95L156.48-13.95Q156.48-13.7 156.23-13.35L156.23-13.35Q155.93-13 155.41-12.35 154.88-11.7 154.46-10.95 154.03-10.2 154.03-9.55L154.03-9.55Q154.03-9.45 154.06-9.35 154.08-9.25 154.13-9.15L154.13-9.15Q154.48-8.35 154.48-7.75L154.48-7.75Q154.78-8.5 155.03-8.8 155.28-9.1 155.63-9.3 155.98-9.5 156.48-9.9L156.48-9.9 156.48-10Q156.48-10.55 157.08-10.7L157.08-10.7 157.28-10.75Q157.68-11.3 158.11-11.73 158.53-12.15 159.33-12.45L159.33-12.45 159.33-12.55Q159.53-13.25 160.43-13.25L160.43-13.25Q162.73-13.25 163.48-11.98 164.23-10.7 164.23-8.85L164.23-8.85Q164.23-7.3 163.93-5.55 163.63-3.8 163.63-2.4L163.63-2.4Q163.63-1.7 163.78-1.15L163.78-1.15Q163.83-1.05 164.31-0.68 164.78-0.3 165.28-0.05L165.28-0.05 165.53 0 165.83 0.05 165.98 0.1Q165.98 0.2 166.33 0.55 166.68 0.9 166.68 1.15L166.68 1.15Q166.68 1.55 165.78 1.55L165.78 1.55Q165.58 1.55 165.38 1.48 165.18 1.4 164.93 1.35L164.93 1.35Q164.43 1.25 163.98 1.15 163.53 1.05 163.03 1L163.03 1 162.63 0.95Q162.58 0.95 162.53 0.93 162.48 0.9 162.48 0.9L162.48 0.9Q161.88 0.9 160.86 0.98 159.83 1.05 159.03 1.3L159.03 1.3Q158.78 1.4 158.58 1.53 158.38 1.65 158.18 1.75L158.18 1.75Q158.03 1.85 157.73 1.85L157.73 1.85Q157.03 1.85 157.03 1.2L157.03 1.2Q157.03 0.85 157.38 0.55L157.38 0.55Q157.83 0.2 158.53-0.05L158.53-0.05Q159.18-0.35 159.83-0.75 160.48-1.15 160.53-1.45L160.53-1.45Q160.48-1.55 160.41-1.65 160.33-1.75 160.23-1.8L160.23-1.8Q159.78-2.35 159.78-2.85L159.78-2.85Q159.78-3.35 160.06-3.6 160.33-3.85 160.48-3.95L160.48-3.95Q160.18-4.2 160.18-4.6L160.18-4.6Q160.18-5.15 160.51-5.83 160.83-6.5 160.83-6.95L160.83-6.95Q160.83-7.7 160.53-8.2 160.23-8.7 159.91-9.15 159.58-9.6 159.48-10.25L159.48-10.25Q159.13-10.05 158.76-9.83 158.38-9.6 157.98-9.4L157.98-9.4Q157.73-9.15 157.46-8.9 157.18-8.65 156.83-8.4L156.83-8.4Q156.63-8.25 156.43-8.1 156.23-7.95 155.98-7.7L155.98-7.7Q155.73-7.05 155.61-6.8 155.48-6.55 154.83-6L154.83-6Q154.28-5.5 154.08-5.15L154.08-5.15 154.08-5Q154.08-4.85 154.11-4.67 154.13-4.5 154.13-4.35L154.13-4.35Q154.13-3.5 153.96-2.65 153.78-1.8 153.68-0.95L153.68-0.95Q154.28-0.85 154.58-0.28 154.88 0.3 155.28 0.6L155.28 0.6Q155.58 0.75 155.83 1L155.83 1Q156.08 1.2 156.08 1.55L156.08 1.55Q156.08 1.85 155.86 2.08 155.63 2.3 155.38 2.3L155.38 2.3Q155.13 2.3 154.93 2.1L154.93 2.1Q154.63 1.9 154.43 1.85L154.43 1.85Q153.93 2.05 153.36 1.68 152.78 1.3 151.93 1.3L151.93 1.3Q151.58 1.3 151.21 1.4 150.83 1.5 150.48 1.65L150.48 1.65Q150.23 1.85 149.88 2.02 149.53 2.2 149.13 2.35L149.13 2.35 148.68 2.5Q148.48 2.55 148.23 2.65 147.98 2.75 147.73 2.8L147.73 2.8Q147.68 2.8 147.63 2.83 147.58 2.85 147.48 2.85ZM167.93 16.55L167.93 16.55Q167.43 16.55 167.13 16.3 166.83 16.05 166.68 15.7L166.68 15.7Q166.33 15.55 166.06 15.38 165.78 15.2 165.58 14.95L165.58 14.95Q164.98 14.55 164.43 13.93 163.88 13.3 163.88 12.8L163.88 12.8Q163.88 12.65 163.93 12.5 163.98 12.35 164.03 12.25L164.03 12.25Q163.33 12 163.33 11.3L163.33 11.3Q163.33 10.7 163.73 10.2L163.73 10.2 163.88 10Q164.03 9.75 164.03 9.75L164.03 9.75Q164.03 9.7 164.01 9.68 163.98 9.65 163.98 9.6L163.98 9.6Q163.63 9.35 163.38 9.08 163.13 8.8 163.13 8.3L163.13 8.3Q163.13 8.1 163.28 7.55 163.43 7 163.61 6.48 163.78 5.95 163.88 5.85L163.88 5.85Q164.53 5 165.91 4.13 167.28 3.25 168.58 3L168.58 3Q169.33 2.55 170.43 2.55L170.43 2.55Q171.98 2.55 173.26 3.43 174.53 4.3 175.13 5.65L175.13 5.65Q175.33 6.1 175.38 6.45L175.38 6.45Q175.43 6.7 175.48 7 175.53 7.3 175.53 7.55L175.53 7.55Q175.53 7.95 175.28 8.1L175.28 8.1Q174.98 9.45 174.06 10.65 173.13 11.85 171.28 11.85L171.28 11.85Q170.53 11.85 169.61 11.53 168.68 11.2 168.01 10.53 167.33 9.85 167.33 8.8L167.33 8.8Q167.33 7.65 167.68 7.2 168.03 6.75 168.68 6.3L168.68 6.3Q168.93 6.15 169.13 6.15L169.13 6.15Q169.58 6.15 169.83 6.65 170.08 7.15 170.08 7.7L170.08 7.7Q170.08 7.95 169.98 8.25L169.98 8.25 169.88 8.5 169.88 8.6Q169.88 8.8 169.96 9.3 170.03 9.8 170.03 10L170.03 10 170.78 10Q171.68 10 172.31 9.28 172.93 8.55 172.93 7.9L172.93 7.9Q172.93 7.6 172.78 7.4L172.78 7.4Q172.63 7.1 172.63 6.9L172.63 6.9Q172.63 6.65 172.71 6.38 172.78 6.1 172.78 5.85L172.78 5.85 172.78 5.75Q172.43 5.35 172.73 4.95L172.73 4.95Q172.03 4.35 171.63 4.35L171.63 4.35Q171.38 4.4 171.11 4.48 170.83 4.55 170.58 4.55L170.58 4.55Q170.38 4.55 170.18 4.45 169.98 4.35 169.78 4.25L169.78 4.25Q169.63 4.25 169.48 4.25 169.33 4.25 169.18 4.3L169.18 4.3Q168.38 4.75 167.96 5.45 167.53 6.15 166.53 6.3L166.53 6.3Q166.43 6.3 166.41 6.28 166.38 6.25 166.33 6.25L166.33 6.25Q166.08 6.8 165.83 7.6L165.83 7.6Q165.93 7.8 165.98 7.85L165.98 7.85 166.13 8.1Q166.23 8.3 166.33 8.53 166.43 8.75 166.43 9L166.43 9Q166.43 9.55 166.03 9.8L166.03 9.8 165.83 9.95Q165.98 10.5 166.36 10.73 166.73 10.95 166.73 11.95L166.73 11.95Q166.73 12.35 166.58 13.1L166.58 13.1Q166.48 13.85 166.58 13.95L166.58 13.95Q167.03 13.95 167.26 14.1 167.48 14.25 167.63 14.5L167.63 14.5Q168.68 14.8 169.43 14.8L169.43 14.8Q170.78 14.8 172.43 14.65 174.08 14.5 175.23 13.65L175.23 13.65Q175.48 13.15 175.88 13L175.88 13Q176.38 12.35 176.83 11.4 177.28 10.45 177.78 9.8L177.78 9.8 177.63 9.65Q177.38 9.25 177.38 8.55L177.38 8.55Q177.38 7.7 177.68 6.75 177.98 5.8 178.23 5.2L178.23 5.2 178.33 5.05 178.28 5.05Q178.13 5.05 177.96 4.88 177.78 4.7 177.53 4.05L177.53 4.05 177.43 4.05Q176.73 4.05 176.56 3.83 176.38 3.6 176.31 3.28 176.23 2.95 175.98 2.65 175.73 2.35 174.88 2.2L174.88 2.2Q174.53 2.1 174.16 2.05 173.78 2 173.28 1.85L173.28 1.85Q173.13 1.8 173.03 1.7 172.93 1.6 172.83 1.55L172.83 1.55Q171.88 1.3 171.16 0.78 170.43 0.25 170.43-0.65L170.43-0.65Q170.43-1.1 170.66-1.48 170.88-1.85 171.18-2.1L171.18-2.1Q169.88-2.75 169.46-4.15 169.03-5.55 169.03-7.85L169.03-7.85Q169.03-11.9 172.38-12.7L172.38-12.7Q172.68-13.05 173.26-13.25 173.83-13.45 174.93-13.45L174.93-13.45Q176.28-13.45 177.68-13L177.68-13 177.83-12.95Q177.38-13.8 177.06-14.63 176.73-15.45 176.58-16L176.58-16Q176.23-16.25 176.03-16.55 175.83-16.85 175.83-17.3L175.83-17.3Q175.83-17.8 176.33-18.15L176.33-18.15 176.28-18.3Q176.13-18.7 176.13-19L176.13-19Q176.13-20.1 177.48-20.25L177.48-20.25 177.48-20.3Q177.48-21.05 177.98-21.45 178.48-21.85 179.13-22.13 179.78-22.4 180.18-22.85L180.18-22.85Q180.38-23.05 180.68-23.05L180.68-23.05Q181.03-23.05 181.43-22.88 181.83-22.7 182.18-22.6L182.18-22.6Q183.98-22.1 184.13-20.75L184.13-20.75Q184.43-20.4 184.63-19.98 184.83-19.55 184.83-19.05L184.83-19.05Q184.83-18.45 184.53-17.85L184.53-17.85Q184.43-17.2 184.03-16.75 183.63-16.3 182.88-16.3L182.88-16.3 182.78-16.3Q182.73-16.3 182.68-16.28 182.63-16.25 182.58-16.25L182.58-16.25Q181.93-16.25 181.53-16.68 181.13-17.1 181.13-17.45L181.13-17.45Q181.13-17.7 181.36-17.88 181.58-18.05 182.08-17.95L182.08-17.95 182.53-17.85 182.73-17.75Q182.88-17.85 182.98-17.98 183.08-18.1 183.13-18.25L183.13-18.25 183.08-18.3Q182.63-18.75 182.61-19.18 182.58-19.6 182.63-20.1L182.63-20.1Q182.43-20.2 182.18-20.3 181.93-20.4 181.68-20.4L181.68-20.4Q180.33-20.4 179.41-19.63 178.48-18.85 178.48-17.4L178.48-17.4Q178.48-15.7 178.63-15.08 178.78-14.45 179.03-14.33 179.28-14.2 179.66-13.98 180.03-13.75 180.48-12.9L180.48-12.9Q180.73-12.4 180.86-11.85 180.98-11.3 181.18-10.8L181.18-10.8Q181.83-10.1 182.23-9.2 182.63-8.3 182.63-7.2L182.63-7.2Q182.63-6.25 182.23-5.45L182.23-5.45Q181.78-4.1 180.61-3.2 179.43-2.3 178.13-2.1L178.13-2.1Q176.43-1.5 174.93-1.5L174.93-1.5 174.13-1.5Q173.93-1.5 173.38-1.4 172.83-1.3 172.36-1.13 171.88-0.95 171.88-0.65L171.88-0.65Q172.13 0 173.13 0.18 174.13 0.35 175.43 0.48 176.73 0.6 177.88 1.07 179.03 1.55 179.63 2.75L179.63 2.75Q179.78 2.95 179.78 2.95L179.78 2.95Q180.78 3 181.01 3.48 181.23 3.95 181.23 4.8L181.23 4.8 181.23 5.1Q181.68 5.35 182.06 5.68 182.43 6 182.43 6.6L182.43 6.6Q182.43 7.05 182.18 7.33 181.93 7.6 181.58 7.8L181.58 7.8 181.58 7.85Q181.88 8.5 181.88 9L181.88 9Q181.88 9.55 181.51 9.93 181.13 10.3 180.28 10.7L180.28 10.7 180.23 10.7 180.23 10.95Q180.23 11.8 179.98 12.1 179.73 12.4 179.33 12.5 178.93 12.6 178.38 12.85L178.38 12.85 178.38 13Q178.38 14.5 177.18 14.5L177.18 14.5Q177.03 14.5 176.88 14.5 176.73 14.5 176.58 14.45L176.58 14.45Q176.23 15.85 174.23 16.2 172.23 16.55 167.93 16.55ZM175.63-3.1L175.63-3.1Q175.98-3.1 176.33-3.18 176.68-3.25 176.98-3.3L176.98-3.3Q177.13-3.55 177.38-3.7L177.38-3.7Q177.58-3.85 177.78-3.9L177.78-3.9Q177.83-4.75 177.96-5.25 178.08-5.75 179.23-5.75L179.23-5.75 179.23-5.8Q179.23-6.05 179.23-6.23 179.23-6.4 179.18-6.6L179.18-6.6Q179.13-6.8 179.06-7.05 178.98-7.3 179.03-7.65L179.03-7.65Q178.98-7.8 178.98-8.2L178.98-8.2Q178.98-8.7 179.18-9.15L179.18-9.15Q179.13-9.55 178.73-9.6 178.33-9.65 177.88-10.15L177.88-10.15Q177.58-10.55 177.41-10.83 177.23-11.1 176.98-11.3L176.98-11.3Q175.58-11.55 174.63-11.45L174.63-11.45Q174.23-11.15 173.93-10.83 173.63-10.5 173.23-10.1L173.23-10.1Q173.03-9.55 172.33-9.15L172.33-9.15Q172.13-9 171.91-8.45 171.68-7.9 171.53-7.33 171.38-6.75 171.38-6.5L171.38-6.5Q171.38-4.85 172.58-3.98 173.78-3.1 175.63-3.1ZM196.23 1.7L196.23 1.7Q196.08 1.75 195.95 1.83 195.83 1.9 195.68 1.9L195.68 1.9Q195.43 1.9 195.2 1.7 194.98 1.5 194.98 1.2L194.98 1.2Q194.98 1 195.23 0.65L195.23 0.65Q195.48 0.35 195.65 0 195.83-0.35 195.98-0.65L195.98-0.65Q195.98-0.75 195.95-0.78 195.93-0.8 195.93-0.85L195.93-0.85Q195.93-1.25 196.13-1.53 196.33-1.8 196.43-2.15L196.43-2.15Q196.43-2.35 196.3-2.6 196.18-2.85 196.03-3.15L196.03-3.15Q195.18-2.15 194.03-1.5L194.03-1.5Q193.83-1.25 193.53-1.1L193.53-1.1 192.68-0.85Q192.48-0.8 192.23-0.73 191.98-0.65 191.73-0.55L191.73-0.55Q191.38-0.2 191.1 0.03 190.83 0.25 190.28 0.25L190.28 0.25Q190.03 0.25 189.83 0.18 189.63 0.1 189.38 0.1L189.38 0.1Q189.18 0.1 188.9 0.18 188.63 0.25 188.28 0.25L188.28 0.25Q187.33 0.25 186.73-0.4 186.13-1.05 185.8-2 185.48-2.95 185.38-3.95 185.28-4.95 185.28-5.6L185.28-5.6Q185.28-7.75 186.18-9 187.08-10.25 188.38-11.2L188.38-11.2Q188.48-11.3 188.55-11.35 188.63-11.4 188.73-11.45L188.73-11.45Q189.28-11.85 189.83-12.2 190.38-12.55 190.93-12.9L190.93-12.9 191.03-13Q191.63-13.6 192.38-13.6L192.38-13.6 192.68-13.6Q192.68-13.6 192.7-13.63 192.73-13.65 192.78-13.65L192.78-13.65Q192.88-13.65 193.1-13.5 193.33-13.35 193.43-13.4L193.43-13.4Q193.93-13.65 194.13-13.65L194.13-13.65Q194.33-13.65 194.53-13.6 194.73-13.55 194.98-13.45L194.98-13.45Q195.23-13.4 195.48-13.3 195.73-13.2 195.93-13.1L195.93-13.1Q196.08-14.1 196.25-15.05 196.43-16 196.43-16.95L196.43-16.95Q196.43-17.35 196.4-17.98 196.38-18.6 196.43-19.25L196.43-19.25Q196.23-19.6 195.95-19.83 195.68-20.05 195.33-20.05L195.33-20.05 195.18-20.05Q195.08-20 194.95-19.98 194.83-19.95 194.63-19.95L194.63-19.95Q194.63-19.95 194.5-19.98 194.38-20 194.18-20.05L194.18-20.05Q193.23-20.3 193.23-21.05L193.23-21.05Q193.23-21.75 193.98-21.75L193.98-21.75Q194.38-21.75 194.6-21.7 194.83-21.65 195.33-21.65L195.33-21.65 196.03-21.65Q196.48-21.8 196.78-22 197.08-22.2 197.58-22.2L197.58-22.2Q197.88-22.85 198.68-22.85L198.68-22.85Q199.23-23.15 199.4-23.45 199.58-23.75 200.38-24L200.38-24Q200.83-24.15 201.28-24.23 201.73-24.3 202.13-24.5L202.13-24.5Q202.38-24.65 202.63-24.65L202.63-24.65Q203.23-24.65 203.23-24.05L203.23-24.05Q203.23-23.75 202.93-23.38 202.63-23 201.93-22.65L201.93-22.65Q201.48-22.1 200.6-21.28 199.73-20.45 199.18-19.75L199.18-19.75 199.18-19Q199.18-17.45 198.8-15.93 198.43-14.4 198.43-12.85L198.43-12.85 198.43-10.6Q198.43-8.65 198.53-6.9 198.63-5.15 198.68-3.25L198.68-3.25Q198.78-3.1 198.88-2.93 198.98-2.75 199.03-2.6L199.03-2.6Q199.18-2.9 199.58-3L199.58-3Q200.08-3.4 200.48-3.78 200.88-4.15 201.88-4.15L201.88-4.15Q202.48-4.15 202.48-3.75L202.48-3.75Q202.48-3.4 202.05-2.85 201.63-2.3 201.1-1.9 200.58-1.5 200.28-1.5L200.28-1.5 200.13-1.5 200.08-1.4Q199.93-1.05 199.1-0.4 198.28 0.25 197.4 0.85 196.53 1.45 196.23 1.7ZM190.13-2.3L190.13-2.3Q190.78-2.4 191.43-2.45 192.08-2.5 192.88-2.5L192.88-2.5Q194.98-3.55 195.63-5.45L195.63-5.45Q195.63-6.35 195.6-7.35 195.58-8.35 195.58-9.45L195.58-9.45Q195.23-10.3 194.85-11.08 194.48-11.85 193.18-11.9L193.18-11.9Q192.83-11.9 192.18-11.75 191.53-11.6 190.68-11.05L190.68-11.05Q190.23-10.5 189.85-9.53 189.48-8.55 189.25-7.53 189.03-6.5 189.03-5.75L189.03-5.75Q189.03-5.05 189.23-3.9 189.43-2.75 190.13-2.3ZM209.58 0.05L209.58 0.05Q207.88 0.05 206.9-0.68 205.93-1.4 205.23-2.5L205.23-2.5Q205.03-2.75 205.13-3.2L205.13-3.2Q204.63-3.7 204.15-4.35 203.68-5 203.68-5.75L203.68-5.75Q203.68-6.05 203.83-6.3 203.98-6.55 204.18-6.75L204.18-6.75 204.18-6.8Q204.18-7.2 204.48-7.48 204.78-7.75 205.08-7.95L205.08-7.95Q204.83-8.25 204.83-8.65L204.83-8.65Q204.83-9 205.03-9.3 205.23-9.6 205.53-9.85L205.53-9.85 205.68-10.05Q205.63-10.75 206.03-10.93 206.43-11.1 206.88-11.25L206.88-11.25Q207.23-11.65 207.68-11.93 208.13-12.2 208.63-12.5L208.63-12.5Q209.28-13.1 210.08-13.45L210.08-13.45Q210.63-13.75 211.08-14.05 211.53-14.35 212.28-14.35L212.28-14.35Q212.53-14.35 212.75-14.3 212.98-14.25 213.18-14.15L213.18-14.15Q214.03-14 214.43-13.48 214.83-12.95 214.83-12.5L214.83-12.5Q214.83-11.9 214.33-11.9L214.33-11.9Q213.83-11.9 213.13-12.45L213.13-12.45Q212.88-12.2 212.53-12.2L212.53-12.2 211.33-12.2Q211.13-12.2 210.9-12.15 210.68-12.1 210.48-12L210.48-12Q210.23-11.8 209.95-11.65 209.68-11.5 209.43-11.35L209.43-11.35Q209.08-11 208.7-10.68 208.33-10.35 207.88-10.1L207.88-10.1Q207.23-9.1 207.28-8.53 207.33-7.95 207.28-6.7L207.28-6.7Q207.28-6.65 207.35-6.23 207.43-5.8 207.33-5.7L207.33-5.7Q207.88-5.4 208.05-4.75 208.23-4.1 208.33-3.4 208.43-2.7 208.7-2.2 208.98-1.7 209.73-1.7L209.73-1.7Q211.18-1.7 212.38-2.23 213.58-2.75 214.08-4L214.08-4Q214.08-4.2 214.05-4.38 214.03-4.55 214.03-4.75L214.03-4.75Q214.03-5.05 214.13-5.33 214.23-5.6 214.58-5.8L214.58-5.8 214.78-5.9Q215.23-6.65 215.23-7.65L215.23-7.65Q215.23-8.45 214.9-9.1 214.58-9.75 213.88-9.95L213.88-9.95Q212.83-9.95 212.18-9.75L212.18-9.75Q211.98-9.65 211.75-9.53 211.53-9.4 211.38-9.25L211.38-9.25Q210.98-8.95 210.85-8.5 210.73-8.05 210.73-7.55L210.73-7.55Q210.73-7.2 210.75-6.85 210.78-6.5 210.83-6.25L210.83-6.25Q210.93-5.95 211.15-5.68 211.38-5.4 211.63-5.05L211.63-5.05Q211.93-4.7 211.93-4.4L211.93-4.4Q211.93-3.9 211.18-3.9L211.18-3.9Q210.58-3.9 209.9-4.48 209.23-5.05 209.28-6.3L209.28-6.3Q209.23-6.5 209.2-6.7 209.18-6.9 209.18-7.15L209.18-7.15 209.13-7.15Q209.13-8.45 209.7-9.53 210.28-10.6 211.43-11L211.43-11Q213.03-11.75 215.08-11.75L215.08-11.75Q216.48-11.75 217.18-10.88 217.88-10 218.13-8.78 218.38-7.55 218.38-6.5L218.38-6.5Q218.38-6.6 218.23-6.1 218.08-5.6 217.8-4.85 217.53-4.1 217.2-3.5 216.88-2.9 216.53-2.85L216.53-2.85Q216.03-2.85 215.73-2.5L215.73-2.5Q215.43-1.8 214.58-1.8L214.58-1.8 214.48-1.65Q214.43-1.6 214.35-1.58 214.28-1.55 214.18-1.5L214.18-1.5 214.03-1.3Q213.38-0.4 212-0.18 210.63 0.05 209.58 0.05ZM245.67 4.5L245.67 4.5Q244.87 4.35 243.6 3.8 242.32 3.25 241.17 2.95L241.17 2.95Q240.87 3.05 240.62 3.05L240.62 3.05Q240.37 3.05 239.87 3 239.37 2.95 238.95 2.8 238.52 2.65 238.52 2.3L238.52 2.3Q238.52 2.05 238.82 1.7L238.82 1.7Q239.17 1.3 239.92 1.3L239.92 1.3Q240.47 1.3 240.97 1.45L240.97 1.45Q241.32 1.1 241.35 0.3 241.37-0.5 241.37-0.85L241.37-0.85Q241.37-1.3 241.57-1.58 241.77-1.85 241.97-2L241.97-2 242.07-2.1Q242.27-2.8 242.27-3.78 242.27-4.75 242.35-5.65 242.42-6.55 242.87-7.1L242.87-7.1Q243.02-7.3 243-7.25 242.97-7.2 243.07-7.4L243.07-7.4Q243.37-7.8 243.05-8.15 242.72-8.5 242.72-9.1L242.72-9.1Q242.72-9.35 242.87-9.7 243.02-10.05 243.37-10.45L243.37-10.45Q243.47-10.55 243.47-10.58 243.47-10.6 243.47-10.6L243.47-10.6Q243.47-11.05 242.97-11.78 242.47-12.5 241.57-12.75L241.57-12.75Q241.07-12.55 240.57-12.23 240.07-11.9 239.62-11.5L239.62-11.5Q239.37-11.15 239.15-10.9 238.92-10.65 238.72-10.55L238.72-10.55Q238.67-10.5 238.52-10.48 238.37-10.45 238.27-10.35L238.27-10.35Q237.87-9.75 237.57-9.2L237.57-9.2Q237.52-8.7 237.7-8.25 237.87-7.8 237.77-7.15L237.77-7.15Q237.72-6.65 237.7-5.95 237.67-5.25 237.27-4.85L237.27-4.85 237.32-4.75Q237.37-4.55 237.42-4.23 237.47-3.9 237.47-3.6L237.47-3.6Q237.47-3.25 237.35-2.95 237.22-2.65 236.92-2.55L236.92-2.55Q237.22-2.25 237.32-2.1L237.32-2.1 237.52-1.85Q237.77-1.5 238.02-1.45L238.02-1.45 238.57-1.3Q239.32-1.25 239.32-0.7L239.32-0.7Q239.32-0.05 238.47 0.1L238.47 0.1Q238.42 0.1 238.35 0.13 238.27 0.15 238.17 0.15L238.17 0.15Q237.77 0.15 237.12-0.25L237.12-0.25Q236.62-0.45 236.15-0.63 235.67-0.8 235.12-0.8L235.12-0.8Q234.67-0.8 234.25-0.68 233.82-0.55 233.42-0.45L233.42-0.45Q233.22-0.25 232.87-0.15 232.52-0.05 232.22 0.05L232.22 0.05Q232.07 0.25 231.67 0.25L231.67 0.25 231.07 0.25Q230.77 0.25 230.52 0.28 230.27 0.3 230.17 0.3L230.17 0.3Q229.32 0.3 229.32-0.2L229.32-0.2Q229.32-0.55 229.62-0.85 229.92-1.15 230.27-1.2L230.27-1.2Q230.52-1.35 230.87-1.35L230.87-1.35Q231.37-1.35 231.82-1.48 232.27-1.6 232.72-1.7L232.72-1.7 232.87-2Q233.02-2.05 233.2-2.05 233.37-2.05 233.52-2.05L233.52-2.05Q233.57-2.35 233.52-2.63 233.47-2.9 233.47-3.15L233.47-3.15Q233.47-3.55 233.77-4.05L233.77-4.05Q234.12-4.6 234.22-5.28 234.32-5.95 234.32-6.65L234.32-6.65Q234.32-7.05 234.3-7.43 234.27-7.8 234.27-8.15L234.27-8.15Q234.27-9.9 233.97-11.13 233.67-12.35 231.92-12.9L231.92-12.9 231.67-13.05Q231.02-12.8 230.45-12.4 229.87-12 229.27-11.65L229.27-11.65Q228.32-11.15 228-11.05 227.67-10.95 227.47-10.1L227.47-10.1Q227.47-9.7 227.5-9.33 227.52-8.95 227.52-8.65L227.52-8.65Q227.52-7.85 227.27-7.55L227.27-7.55Q227.17-7.4 226.87-7.2L226.87-7.2 226.82-7.15 226.92-7.05Q227.47-6.55 227.47-5.9L227.47-5.9Q227.47-5.25 227.17-4.58 226.87-3.9 226.87-3.15L226.87-3.15Q226.92-3.15 227.35-2.93 227.77-2.7 228.25-2.43 228.72-2.15 228.87-2.05L228.87-2.05Q229.42-1.8 229.42-1.35L229.42-1.35Q229.42-0.65 228.57-0.65L228.57-0.65Q228.22-0.65 227.62-1.03 227.02-1.4 226.62-1.6L226.62-1.6 226.57-1.55Q226.27-1.25 225.87-1.25L225.87-1.25Q225.57-1.25 225.37-1.33 225.17-1.4 224.87-1.4L224.87-1.4Q224.47-1.4 224.05-1.28 223.62-1.15 223.22-1.05L223.22-1.05Q223.12-0.95 222.92-0.85L222.92-0.85Q222.57-0.45 221.67-0.05 220.77 0.35 220.32 0.35L220.32 0.35Q219.47 0.35 219.47-0.3L219.47-0.3Q219.47-1 220.32-1.25L220.32-1.25Q220.57-1.35 220.9-1.48 221.22-1.6 221.57-1.75L221.57-1.75Q221.67-2.4 222.27-2.4L222.27-2.4 222.67-2.4Q223.57-3.05 223.72-3.85L223.72-3.85Q223.92-4.95 224.1-5.3 224.27-5.65 224.27-6.45L224.27-6.45Q224.27-7.25 224.15-8 224.02-8.75 224.02-9.45L224.02-9.45Q224.02-10.4 224.42-11.2L224.42-11.2 224.47-11.35Q224.32-11.5 224.17-11.6L224.17-11.6 223.92-11.8Q223.72-11.95 223.47-12.25L223.47-12.25Q223.22-12.2 222.92-12.1 222.62-12 222.27-12L222.27-12Q222.07-12 221.92-11.95 221.77-11.9 221.52-11.9L221.52-11.9Q221.17-11.9 221-12.15 220.82-12.4 220.82-12.65L220.82-12.65Q220.82-13.4 221.52-13.4L221.52-13.4 222.27-13.4Q222.72-13.4 223.12-13.63 223.52-13.85 224.02-13.85L224.02-13.85 224.27-13.85 224.42-13.9 224.62-13.95Q225.32-14.2 226.12-14.85 226.92-15.5 227.32-15.85L227.32-15.85Q227.57-16.1 227.92-16.1L227.92-16.1Q228.57-16.1 228.57-15.45L228.57-15.45Q228.57-15.15 228.47-15L228.47-15Q227.92-13.75 227.67-12.55L227.67-12.55 227.77-12.6Q229.07-13.25 230.37-14.05 231.67-14.85 233.22-14.85L233.22-14.85Q234.22-14.85 235.52-13.88 236.82-12.9 237.42-11.65L237.42-11.65Q238.12-12.5 239.07-13.2L239.07-13.2Q239.17-13.35 239.3-13.5 239.42-13.65 239.62-13.85L239.62-13.85Q239.87-14.05 240.17-14.2 240.47-14.35 240.82-14.3L240.82-14.3 240.97-14.3Q242.22-14.85 243.42-14.85L243.42-14.85Q244.67-14.85 245.37-14 246.07-13.15 246.37-11.98 246.67-10.8 246.67-9.85L246.67-9.85Q246.67-8.6 246.27-7.1 245.87-5.6 245.32-4.25L245.32-4.25Q245.27-4.2 245.27-4.05L245.27-4.05Q245.27-3.75 245.4-3.33 245.52-2.9 245.42-2.55L245.42-2.55Q245.27-1.65 244.82-0.65 244.37 0.35 244.12 1.35L244.12 1.35Q244.12 1.4 244.22 1.6L244.22 1.6Q244.57 2.75 246.02 3.1L246.02 3.1Q246.62 3.25 246.62 3.8L246.62 3.8Q246.62 4.1 246.37 4.33 246.12 4.55 245.67 4.5Z" fill="#b4ddcf" data-fill-palette-color="accent"></path></g></svg></g></svg></g></svg></g></svg></g></svg></g><defs></defs></svg><rect width="395.52" height="70.7486199919061" fill="none" stroke="none" visibility="hidden"></rect></g></svg></g></svg>